<svg width="1080" height="1080" viewBox="0 0 1080 1080" fill="none" xmlns="http://www.w3.org/2000/svg">
<path d="M943 772.369V307.631L539.466 75.262L136 307.631V772.369L539.466 1004.74L942.966 772.369H943Z" fill="#073A53"/>
<path fill-rule="evenodd" clip-rule="evenodd" d="M942.966 772.369L539.466 1004.74L136 772.369V307.631L539.466 75.262L943 307.631V772.369H942.966ZM936 768.303V311.678L539.467 83.3397L143 311.677V768.323L539.467 996.66L936 768.303Z" fill="#F7DF1E"/>
<path d="M386.599 823.784L353.869 865.128L368.201 823.784C368.201 823.784 386.582 824.267 386.582 823.784H386.617H386.599Z" fill="#F7DF1E"/>
<path d="M326.272 734.206C316.177 739.288 307.098 751.605 304.756 762.595C302.413 773.586 298.744 794.981 283.24 800.098C283.24 800.098 292.594 804.56 303.808 796.911C315.023 789.28 323.894 773.19 321.862 759.719C319.071 741.372 326.926 733.913 326.272 734.24V734.206Z" fill="#F7DF1E"/>
<path d="M606.049 658.202C606.049 658.202 611.648 667.039 634.714 666.833C657.764 666.592 662.69 657.341 652.372 645.489C642.018 633.637 629.546 630.002 613.405 634.292C597.246 638.615 581.536 650.881 591.028 669.382C600.52 687.884 641.002 744.111 658.005 760.046C658.005 760.046 673.112 736.135 675.731 717.117C678.711 695.911 679.969 671.346 667.462 675.222C654.99 679.064 617.488 689.744 606.049 658.185V658.219V658.202Z" fill="#F7DF1E"/>
<path d="M719.107 620.51C719.107 620.51 729.616 645.506 736.713 657.048C743.81 668.624 747.91 672.035 768.531 679.305C789.151 686.557 869.444 714.964 879.281 716.997C879.281 716.997 798.712 658.857 790.96 652.983C783.19 647.074 771.011 646.557 761.209 647.315C745.878 648.435 731.907 640.287 719.073 620.545H719.107V620.51Z" fill="#F7DF1E"/>
<path d="M749.822 711.846C749.822 711.846 744.723 729.4 753.578 746.781C762.467 764.163 772.303 766.403 782.105 767.746C791.907 769.09 808.341 774.051 812.872 787.609C812.872 787.609 818.35 770.02 803.07 757.806C787.79 745.627 767.721 745.731 759.366 735.395C749.667 723.388 750.684 717.686 749.84 711.811V711.846H749.822Z" fill="#F7DF1E"/>
<path d="M696.144 765.214L739.745 858.238L701.881 815.929C701.881 815.929 702.088 787.936 693.233 776.377L696.11 765.214H696.144Z" fill="#F7DF1E"/>
<path d="M651.889 847.902L646.756 885.8L634.663 865.576L651.889 847.902Z" fill="#F7DF1E"/>
<path d="M857.954 600.958C836.404 599.425 835.077 576.324 812.562 571.38C790.047 566.436 768.496 574.722 744.827 567.366L740.675 560.923L744.706 551.759L917.834 524.834L744.672 497.891C744.362 497.168 744.276 496.961 743.983 496.22C749.65 488.227 759.16 478.305 770.667 479.993C789.513 482.749 805.051 489.605 817.162 479.821C829.272 470.036 830.323 452.585 852.614 458.27C876.938 464.454 891.787 461.647 899.384 440.527C899.384 440.527 880.986 449.209 863.897 440.888C846.809 432.568 834.853 426.987 819.16 435.497C803.466 444.006 795.232 442.387 788.703 440.217C782.226 438.063 762.536 430.156 731.735 444.23L867.015 335.289L704.276 398.27C704.362 388.433 706.498 374.29 717.23 369.088C734.37 360.767 751.063 357.701 755.576 342.8C760.09 327.899 751.149 312.895 772.769 305.039C796.369 296.478 807.067 285.797 801.468 264.057C801.468 264.057 791.149 281.577 772.338 284.316C753.526 287.055 740.503 289.156 732.32 305.022C724.138 320.888 716.403 324.178 709.805 326.056C703.294 327.899 682.897 332.378 665.447 360.63C665.102 360.457 665.24 360.526 664.895 360.354L728.289 196.546L618.16 333.325C618.022 333.222 618.074 333.257 617.936 333.153C633.733 303.937 627.445 284.023 625.791 277.442C624.12 270.776 623.121 262.438 632.785 247.434C642.449 232.429 637.781 220.095 630.787 202.42C623.793 184.746 633.819 167.054 633.819 167.054C612.182 173.032 608.272 187.64 612.595 212.36C616.575 235.03 599.107 234.755 588.427 246.09C577.763 257.425 583.431 273.429 584.757 292.43C585.601 304.471 574.128 313.446 565.601 318.39L538.745 145.728L511.751 319.269C511.182 319.234 511.406 319.251 510.838 319.2C509.787 286.073 494.352 272.033 489.632 267.193C484.843 262.266 479.778 255.565 480.605 237.735C481.432 219.905 471.182 211.585 456.247 199.836C441.311 188.088 441.105 167.743 441.105 167.743C425.411 183.798 429.356 198.389 445.532 217.58C460.364 235.168 445.118 243.73 441.604 258.889C438.073 274.049 451.027 285.039 461.725 300.802C468.357 310.569 463.327 323.713 458.538 332.292L349.218 196.529L412.612 360.337C412.267 360.509 412.405 360.44 412.06 360.612C394.61 332.361 374.214 327.899 367.702 326.039C361.087 324.161 353.369 320.871 345.187 305.005C337.004 289.139 323.981 287.038 305.169 284.299C286.358 281.56 276.039 264.04 276.039 264.04C270.44 285.78 281.138 296.461 304.739 305.022C326.358 312.877 317.417 327.882 321.931 342.783C326.444 357.684 343.137 360.75 360.277 369.071C371.009 374.273 373.146 388.416 373.232 398.253L210.492 335.272L345.772 444.213C314.971 430.139 295.281 438.046 288.804 440.199C282.275 442.37 274.041 443.989 258.347 435.479C242.654 426.969 230.716 432.551 213.61 440.871C196.521 449.192 178.123 440.509 178.123 440.509C185.72 461.629 200.569 464.437 224.893 458.253C247.185 452.585 248.235 470.019 260.346 479.803C272.456 489.588 287.977 482.732 306.84 479.976C318.348 478.287 327.857 488.21 333.524 496.203C333.214 496.927 333.128 497.133 332.835 497.874L159.673 524.817L332.801 551.742L319.777 559.752C314.799 562.818 311.009 567.487 309.045 572.982L306.702 579.545C304.187 586.591 298.951 592.379 292.112 595.377C282.654 599.511 273.317 599.459 262.275 597.323C244.256 593.809 229.493 599.339 217.469 607.453C209.045 613.137 202.068 629.089 195.608 634.808C189.148 640.528 173.885 635.928 173.885 635.928C183.842 651.604 212.714 652.483 219.743 643.904C232.456 628.366 252.421 625.162 269.286 630.571C284.756 635.549 304.411 627.091 315.419 616.944C325.858 607.366 325.014 595.17 339.691 586.522C352.508 578.96 368.563 579.132 368.563 579.132C368.012 586.557 364.997 599.89 355.54 609.658C344.188 621.372 210.423 732.328 210.423 732.328L356.487 662.371C358.4 707.212 367.271 756.377 375.385 775.843C378.882 784.198 383.688 792.019 389.528 799.926C405.945 822.148 426.996 840.477 450.734 854.586L450.906 854.482C476.126 869.504 510.579 887.368 533.939 889.211C550.459 885.835 553.009 875.929 553.009 861.028C553.009 846.127 546.307 841.838 539.313 841.442C532.302 841.028 527.617 836.463 523.207 830.158C518.779 823.853 531.269 823.216 548.461 822.94C565.67 822.63 569.133 814.361 573.043 804.267C576.919 794.189 561.656 793.224 530.89 796.876C504.877 799.943 496.678 795.722 494.576 792.174C509.063 778.978 526.066 767.023 534.938 769.314C549.839 773.259 552.716 764.818 549.081 762.268C545.842 760.011 530.442 744.818 523.758 740.184C523.052 739.667 515.902 735.067 516.178 734.258C520.795 721.062 529.029 725.868 543.276 728.883C557.522 731.88 570.407 715.429 567.513 709.865C563.224 701.613 559.934 706.247 552.044 690.416C543.913 656.962 551.803 601.544 586.687 591.397C617.178 582.508 650.477 592.31 658.332 594.946C659.107 595.222 659.865 594.533 659.727 593.757L651.028 545.092L644.327 514.429C644.534 513.516 645.378 512.861 646.325 512.999C682.398 517.943 706.567 562.818 718.401 579.683C730.236 596.548 752.648 614.619 771.132 619.649C789.633 624.731 797.144 616.445 809.651 616.789C822.157 617.134 828.962 628.917 849.117 629.02C869.238 629.124 876.628 619.649 888.583 619.477C897.558 619.339 906.395 624.249 906.395 624.249C902.037 612.586 879.47 602.509 857.902 600.975L857.954 600.958ZM401.242 686.643C405.256 697.668 386.979 704.542 379.364 695.722C372.543 687.763 374.351 659.735 412.405 664.008H412.439C412.439 664.008 396.074 672.466 401.242 686.643ZM465.291 683.663C427.806 688.297 418.073 663.697 418.073 663.697V663.663C443.034 672.362 462.19 674.964 464.757 656.996C467.323 639.029 446.462 629.348 429.253 626.454C412.732 623.697 391.767 617.565 391.767 609.072C391.767 600.579 403.361 587.78 446.169 587.78C488.977 587.78 500.243 612 502.965 623.301C505.704 634.636 502.759 679.029 465.273 683.663H465.291Z" fill="#F7DF1E"/>
</svg>
